<svg width="22" height="25" viewBox="0 0 22 25" fill="none" xmlns="http://www.w3.org/2000/svg">
<path d="M20.5 22C20.5 22.3978 20.342 22.7794 20.0607 23.0607C19.7794 23.342 19.3978 23.5 19 23.5H2.5C2.10218 23.5 1.72064 23.342 1.43934 23.0607C1.15804 22.7794 1 22.3978 1 22V2.5C1 2.10218 1.15804 1.72064 1.43934 1.43934C1.72064 1.15804 2.10218 1 2.5 1H13.129C13.5265 1.00008 13.9078 1.15798 14.189 1.439L20.061 7.311C20.342 7.5922 20.4999 7.97345 20.5 8.371V22Z" stroke="white" stroke-width="1.5" stroke-linecap="round" stroke-linejoin="round"/>
<path d="M20.5 8.5H14.5C14.1022 8.5 13.7206 8.34196 13.4393 8.06066C13.158 7.77936 13 7.39782 13 7V1" stroke="white" stroke-width="1.5" stroke-linecap="round" stroke-linejoin="round"/>
<path d="M4.95 11.8441C5.16657 12.1286 5.44852 12.3566 5.77195 12.5089C6.09539 12.6612 6.45078 12.7333 6.808 12.7191C7.947 12.7191 8.871 12.0261 8.871 11.1721C8.871 10.3181 7.95 9.62612 6.812 9.62612C5.674 9.62612 4.75 8.93312 4.75 8.07812C4.75 7.22312 5.674 6.53112 6.812 6.53112C7.16926 6.51664 7.52473 6.58863 7.84821 6.74096C8.17169 6.8933 8.4536 7.12148 8.67 7.40612" stroke="white" stroke-width="1.5" stroke-linecap="round" stroke-linejoin="round"/>
<path d="M6.81201 12.719V13.75" stroke="white" stroke-width="1.5" stroke-linecap="round" stroke-linejoin="round"/>
<path d="M6.81201 5.5V6.531" stroke="white" stroke-width="1.5" stroke-linecap="round" stroke-linejoin="round"/>
<path d="M10.75 15.25H16.75" stroke="white" stroke-width="1.5" stroke-linecap="round" stroke-linejoin="round"/>
<path d="M5.5 19.75H16.75" stroke="white" stroke-width="1.5" stroke-linecap="round" stroke-linejoin="round"/>
</svg>
