<svg width="33" height="39" viewBox="0 0 33 39" fill="none" xmlns="http://www.w3.org/2000/svg">
<path d="M29.1115 11L22 3.8885V11H29.1115ZM30.25 13.75H19.25V2.75H2.75V35.75H30.25V13.75ZM1.375 0H22L33 11V37.125C33 37.4897 32.8551 37.8394 32.5973 38.0973C32.3394 38.3551 31.9897 38.5 31.625 38.5H1.375C1.01033 38.5 0.660591 38.3551 0.402728 38.0973C0.144866 37.8394 0 37.4897 0 37.125V1.375C0 1.01033 0.144866 0.660591 0.402728 0.402728C0.660591 0.144866 1.01033 0 1.375 0ZM14.652 23.474L10.7635 19.58L12.7077 17.6357L16.599 21.5243L20.4875 17.6385L22.4317 19.5828L18.5433 23.474L22.4317 27.3625L20.4875 29.3067L16.599 25.4183L12.7077 29.3067L10.7635 27.3625L14.652 23.474Z" fill="#3B4559"/>
</svg>
