<svg width="18" height="18" viewBox="0 0 18 18" fill="none" xmlns="http://www.w3.org/2000/svg">
<path d="M13.2931 0.292786C13.4806 0.105315 13.7349 0 14.0001 0C14.2653 0 14.5196 0.105315 14.7071 0.292786L17.7071 3.29279C17.8946 3.48031 17.9999 3.73462 17.9999 3.99979C17.9999 4.26495 17.8946 4.51926 17.7071 4.70679L8.70711 13.7068C8.51961 13.8943 8.2653 13.9997 8.00011 13.9998H5.00011C4.73489 13.9998 4.48054 13.8944 4.293 13.7069C4.10546 13.5194 4.00011 13.265 4.00011 12.9998V9.99979C4.00016 9.73459 4.10556 9.48028 4.29311 9.29279L13.2931 0.292786ZM6.00011 10.4138V11.9998H7.58611L15.5861 3.99979L14.0001 2.41379L6.00011 10.4138ZM0.000106812 3.99979C0.000106812 3.46935 0.21082 2.96065 0.585893 2.58557C0.960966 2.2105 1.46967 1.99979 2.00011 1.99979H7.00011C7.26532 1.99979 7.51968 2.10514 7.70721 2.29268C7.89475 2.48022 8.00011 2.73457 8.00011 2.99979C8.00011 3.265 7.89475 3.51936 7.70721 3.70689C7.51968 3.89443 7.26532 3.99979 7.00011 3.99979H2.00011V15.9998H14.0001V10.9998C14.0001 10.7346 14.1055 10.4802 14.293 10.2927C14.4805 10.1051 14.7349 9.99979 15.0001 9.99979C15.2653 9.99979 15.5197 10.1051 15.7072 10.2927C15.8948 10.4802 16.0001 10.7346 16.0001 10.9998V15.9998C16.0001 16.5302 15.7894 17.0389 15.4143 17.414C15.0392 17.7891 14.5305 17.9998 14.0001 17.9998H2.00011C1.46967 17.9998 0.960966 17.7891 0.585893 17.414C0.21082 17.0389 0.000106812 16.5302 0.000106812 15.9998V3.99979Z" fill="#3B4559"/>
</svg>
