<svg width="16" height="20" viewBox="0 0 16 20" fill="none" xmlns="http://www.w3.org/2000/svg">
<path d="M14.4375 19.1875H13.125V17.2188C13.124 16.3488 12.7779 15.5148 12.1628 14.8997C11.5477 14.2846 10.7137 13.9385 9.84375 13.9375H5.90625C5.03633 13.9385 4.20233 14.2846 3.58721 14.8997C2.97208 15.5148 2.62604 16.3488 2.625 17.2188V19.1875H1.3125V17.2188C1.31389 16.0008 1.79832 14.8332 2.65951 13.972C3.52071 13.1108 4.68834 12.6264 5.90625 12.625H9.84375C11.0617 12.6264 12.2293 13.1108 13.0905 13.972C13.9517 14.8332 14.4361 16.0008 14.4375 17.2188V19.1875ZM0.65625 3.4375C0.482202 3.4375 0.315282 3.50664 0.192211 3.62971C0.0691406 3.75278 0 3.9197 0 4.09375V10H1.3125V4.09375C1.3125 3.9197 1.24336 3.75278 1.12029 3.62971C0.997218 3.50664 0.830298 3.4375 0.65625 3.4375Z" fill="#3B4559"/>
<path d="M0 0.8125V2.125H3.28125V6.71875C3.28125 7.93709 3.76523 9.10553 4.62673 9.96702C5.48822 10.8285 6.65666 11.3125 7.875 11.3125C9.09334 11.3125 10.2618 10.8285 11.1233 9.96702C11.9848 9.10553 12.4688 7.93709 12.4688 6.71875V2.125H15.75V0.8125H0ZM4.59375 2.125H11.1562V4.09375H4.59375V2.125ZM7.875 10C7.00476 10 6.17016 9.6543 5.55481 9.03894C4.93945 8.42359 4.59375 7.58899 4.59375 6.71875V5.40625H11.1562V6.71875C11.1562 7.58899 10.8105 8.42359 10.1952 9.03894C9.57984 9.6543 8.74524 10 7.875 10Z" fill="#3B4559"/>
</svg>
