<svg width="22" height="25" viewBox="0 0 22 25" fill="none" xmlns="http://www.w3.org/2000/svg">
<path d="M20.5001 22C20.5001 22.3978 20.3421 22.7794 20.0608 23.0607C19.7795 23.342 19.3979 23.5 19.0001 23.5H2.50012C2.1023 23.5 1.72077 23.342 1.43946 23.0607C1.15816 22.7794 1.00012 22.3978 1.00012 22V2.5C1.00012 2.10218 1.15816 1.72064 1.43946 1.43934C1.72077 1.15804 2.1023 1 2.50012 1H13.1291C13.5267 1.00008 13.9079 1.15798 14.1891 1.439L20.0611 7.311C20.3421 7.5922 20.5 7.97345 20.5001 8.371V22Z" stroke="#285CED" stroke-width="1.5" stroke-linecap="round" stroke-linejoin="round"/>
<path d="M20.5001 8.5H14.5001C14.1023 8.5 13.7208 8.34196 13.4395 8.06066C13.1582 7.77936 13.0001 7.39782 13.0001 7V1" stroke="#285CED" stroke-width="1.5" stroke-linecap="round" stroke-linejoin="round"/>
<path d="M4.95012 11.8441C5.16669 12.1286 5.44864 12.3566 5.77207 12.5089C6.09551 12.6612 6.4509 12.7333 6.80812 12.7191C7.94712 12.7191 8.87112 12.0261 8.87112 11.1721C8.87112 10.3181 7.95012 9.62612 6.81212 9.62612C5.67412 9.62612 4.75012 8.93312 4.75012 8.07812C4.75012 7.22312 5.67412 6.53112 6.81212 6.53112C7.16938 6.51664 7.52486 6.58863 7.84833 6.74096C8.17181 6.8933 8.45373 7.12148 8.67012 7.40612" stroke="#285CED" stroke-width="1.5" stroke-linecap="round" stroke-linejoin="round"/>
<path d="M6.81213 12.719V13.75" stroke="#285CED" stroke-width="1.5" stroke-linecap="round" stroke-linejoin="round"/>
<path d="M6.81213 5.5V6.531" stroke="#285CED" stroke-width="1.5" stroke-linecap="round" stroke-linejoin="round"/>
<path d="M10.7501 15.25H16.7501" stroke="#285CED" stroke-width="1.5" stroke-linecap="round" stroke-linejoin="round"/>
<path d="M5.50012 19.75H16.7501" stroke="#285CED" stroke-width="1.5" stroke-linecap="round" stroke-linejoin="round"/>
</svg>
