<svg width="20" height="18" viewBox="0 0 20 18" fill="none" xmlns="http://www.w3.org/2000/svg">
<path d="M19.0312 15.8899H17.7188V8.30614C17.7188 8.12449 17.6811 7.94481 17.6081 7.77848C17.5351 7.61214 17.4284 7.46277 17.2946 7.33981L10.7321 1.1481C10.7289 1.1453 10.7259 1.14228 10.7231 1.13907C10.4815 0.919338 10.1666 0.797577 9.84006 0.797577C9.51347 0.797577 9.19861 0.919338 8.95699 1.13907L8.94797 1.1481L2.39285 7.33981C2.25914 7.46277 2.1524 7.61214 2.0794 7.77848C2.0064 7.94481 1.96872 8.12449 1.96875 8.30614V15.8899H0.65625C0.482202 15.8899 0.315282 15.9591 0.192211 16.0821C0.0691404 16.2052 0 16.3721 0 16.5462C0 16.7202 0.0691404 16.8871 0.192211 17.0102C0.315282 17.1333 0.482202 17.2024 0.65625 17.2024H19.0312C19.2053 17.2024 19.3722 17.1333 19.4953 17.0102C19.6184 16.8871 19.6875 16.7202 19.6875 16.5462C19.6875 16.3721 19.6184 16.2052 19.4953 16.0821C19.3722 15.9591 19.2053 15.8899 19.0312 15.8899ZM3.28125 8.30614L3.29027 8.29794L9.84375 2.10868L16.398 8.2963L16.4071 8.3045V15.8899H12.4688V11.9524C12.4688 11.6043 12.3305 11.2705 12.0843 11.0244C11.8382 10.7782 11.5043 10.6399 11.1562 10.6399H8.53125C8.18315 10.6399 7.84931 10.7782 7.60317 11.0244C7.35703 11.2705 7.21875 11.6043 7.21875 11.9524V15.8899H3.28125V8.30614ZM11.1562 15.8899H8.53125V11.9524H11.1562V15.8899Z" fill="#3B4559"/>
</svg>
