<svg width="12" height="13" viewBox="0 0 12 13" fill="none" xmlns="http://www.w3.org/2000/svg">
<path d="M3.31787 3.00398C3.36614 2.53875 3.52531 2.09348 3.7809 1.70873C4.03648 1.32397 4.38037 1.01195 4.78124 0.801059C5.18211 0.590171 5.62724 0.487119 6.07609 0.501286C6.52495 0.515453 6.96327 0.646388 7.35116 0.882171C7.73905 1.11795 8.06418 1.4511 8.29695 1.85126C8.52972 2.25143 8.66274 2.70592 8.6839 3.17334C8.70506 3.64077 8.61368 4.10628 8.41808 4.5275C8.22249 4.94873 7.92889 5.31228 7.56403 5.58506" stroke="white" stroke-linecap="round" stroke-linejoin="round"/>
<path d="M3.67725 1.85498C4.09442 2.30621 4.59465 2.66514 5.148 2.9103C5.70135 3.15545 6.29647 3.2818 6.89776 3.28179C7.50597 3.28042 8.10768 3.15138 8.66699 2.90238" stroke="white" stroke-linecap="round" stroke-linejoin="round"/>
<path d="M5.4206 5.28577C5.26846 5.28577 5.11974 5.33278 4.99324 5.42086C4.86674 5.50894 4.76814 5.63412 4.70992 5.78059C4.6517 5.92706 4.63647 6.08823 4.66615 6.24372C4.69583 6.39922 4.76909 6.54204 4.87667 6.65415C4.98425 6.76625 5.12131 6.84259 5.27053 6.87352C5.41975 6.90445 5.57441 6.88857 5.71497 6.82791C5.85553 6.76724 5.97567 6.6645 6.06019 6.53268C6.14471 6.40086 6.18983 6.24588 6.18983 6.08734C6.18983 5.87475 6.10879 5.67087 5.96453 5.52054C5.82027 5.37022 5.62461 5.28577 5.4206 5.28577Z" stroke="white" stroke-linecap="round" stroke-linejoin="round"/>
<path d="M4.65144 6.08727H3.88221C3.47419 6.08727 3.08287 5.91837 2.79435 5.61772C2.50584 5.31707 2.34375 4.9093 2.34375 4.48412V3.90698" stroke="white" stroke-linecap="round" stroke-linejoin="round"/>
<path d="M10.9999 12.5001C11.0002 11.5474 10.7492 10.6128 10.2744 9.79861C9.79962 8.98438 9.11925 8.32174 8.30762 7.88306" stroke="white" stroke-linecap="round" stroke-linejoin="round"/>
<path d="M3.69231 7.88306C2.88067 8.32174 2.20031 8.98438 1.72551 9.79861C1.25072 10.6128 0.999744 11.5474 1 12.5001" stroke="white" stroke-linecap="round" stroke-linejoin="round"/>
</svg>
