<svg width="22" height="25" viewBox="0 0 22 25" fill="none" xmlns="http://www.w3.org/2000/svg">
<path d="M5.51999 5.68572C5.61411 4.81513 5.92449 3.9819 6.42289 3.26191C6.92128 2.54191 7.59186 1.95801 8.37356 1.56338C9.15526 1.16874 10.0233 0.975896 10.8985 1.00241C11.7738 1.02892 12.6285 1.27394 13.3849 1.71516C14.1413 2.15638 14.7753 2.77979 15.2292 3.52863C15.6831 4.27747 15.9425 5.12796 15.9837 6.00265C16.025 6.87735 15.8468 7.74847 15.4654 8.53671C15.084 9.32495 14.5115 10.0053 13.8 10.5157" stroke="black" stroke-width="1.5" stroke-linecap="round" stroke-linejoin="round"/>
<path d="M6.22 3.53571C7.0335 4.3801 8.00894 5.05177 9.08797 5.51053C10.167 5.96929 11.3275 6.20573 12.5 6.20571C13.686 6.20314 14.8594 5.96167 15.95 5.49571" stroke="black" stroke-width="1.5" stroke-linecap="round" stroke-linejoin="round"/>
<path d="M9.62 9.95575C9.32332 9.95575 9.03331 10.0437 8.78664 10.2085C8.53997 10.3734 8.34771 10.6076 8.23418 10.8817C8.12065 11.1558 8.09094 11.4574 8.14882 11.7484C8.2067 12.0394 8.34956 12.3066 8.55934 12.5164C8.76912 12.7262 9.03639 12.869 9.32736 12.9269C9.61833 12.9848 9.91993 12.9551 10.194 12.8416C10.4681 12.728 10.7024 12.5358 10.8672 12.2891C11.032 12.0424 11.12 11.7524 11.12 11.4557C11.12 11.0579 10.962 10.6764 10.6807 10.3951C10.3994 10.1138 10.0178 9.95575 9.62 9.95575Z" stroke="black" stroke-width="1.5" stroke-linecap="round" stroke-linejoin="round"/>
<path d="M8.11999 11.4557H6.62C5.82435 11.4557 5.06128 11.1397 4.49867 10.5771C3.93607 10.0144 3.62 9.25138 3.62 8.45573V7.37573" stroke="black" stroke-width="1.5" stroke-linecap="round" stroke-linejoin="round"/>
<path d="M20.5 23.4557C20.5005 21.6728 20.0111 19.924 19.0853 18.4003C18.1594 16.8767 16.8327 15.6366 15.25 14.8157" stroke="black" stroke-width="1.5" stroke-linecap="round" stroke-linejoin="round"/>
<path d="M6.25 14.8157C4.66731 15.6366 3.3406 16.8767 2.41475 18.4003C1.4889 19.924 0.999501 21.6728 1 23.4557" stroke="black" stroke-width="1.5" stroke-linecap="round" stroke-linejoin="round"/>
</svg>
