<svg width="25" height="28" viewBox="0 0 25 28" fill="none" xmlns="http://www.w3.org/2000/svg">
<path d="M11.5 24.499C11.5 25.0295 11.2893 25.5382 10.9142 25.9132C10.5391 26.2883 10.0304 26.499 9.5 26.499C8.96957 26.499 8.46086 26.2883 8.08579 25.9132C7.71071 25.5382 7.5 25.0295 7.5 24.499" stroke="#285CED" stroke-width="1.5" stroke-linecap="round" stroke-linejoin="round"/>
<path d="M10 7.55102C9.83555 7.51665 9.66801 7.49923 9.5 7.49902C8.83696 7.49902 8.20107 7.76242 7.73223 8.23126C7.26339 8.7001 7 9.33598 7 9.99902C5.81545 10.4926 4.8035 11.3257 4.09167 12.3935C3.37985 13.4612 3 14.7158 3 15.999V20.499C3 21.0295 2.78929 21.5382 2.41421 21.9132C2.03914 22.2883 1.53043 22.499 1 22.499H18C17.4696 22.499 16.9609 22.2883 16.5858 21.9132C16.2107 21.5382 16 21.0295 16 20.499V15.999C15.9961 15.7387 15.9764 15.4789 15.941 15.221" stroke="#285CED" stroke-width="1.5" stroke-linecap="round" stroke-linejoin="round"/>
<path d="M18 5V10.0006M20.5 7.5H15.5" stroke="#285CED" stroke-width="1.5" stroke-linecap="round" stroke-linejoin="round"/>
<path d="M12 7.5C12 9.0913 12.6321 10.6174 13.7574 11.7426C14.8826 12.8679 16.4087 13.5 18 13.5C19.5913 13.5 21.1174 12.8679 22.2426 11.7426C23.3679 10.6174 24 9.0913 24 7.5C24 5.9087 23.3679 4.38258 22.2426 3.25736C21.1174 2.13214 19.5913 1.5 18 1.5C16.4087 1.5 14.8826 2.13214 13.7574 3.25736C12.6321 4.38258 12 5.9087 12 7.5V7.5Z" stroke="#285CED" stroke-width="1.5" stroke-linecap="round" stroke-linejoin="round"/>
</svg>
