<svg width="19" height="18" viewBox="0 0 19 18" fill="none" xmlns="http://www.w3.org/2000/svg">
<path d="M13.125 0.03125C10.71 0.03125 8.75 1.99125 8.75 4.40625C8.75 6.82125 10.71 8.78125 13.125 8.78125C15.54 8.78125 17.5 6.82125 17.5 4.40625C17.5 1.99125 15.54 0.03125 13.125 0.03125ZM13.125 7.03125C11.6725 7.03125 10.5 5.85875 10.5 4.40625C10.5 2.95375 11.6725 1.78125 13.125 1.78125C14.5775 1.78125 15.75 2.95375 15.75 4.40625C15.75 5.85875 14.5775 7.03125 13.125 7.03125ZM15.75 12.2812H14C14 11.2312 13.3438 10.2863 12.3638 9.91875L6.97375 7.90625H0V17.5312H5.25V16.2712L11.375 17.9688L18.375 15.7812V14.9062C18.375 13.4537 17.2025 12.2812 15.75 12.2812ZM3.5 15.7812H1.75V9.65625H3.5V15.7812ZM11.3488 16.14L5.25 14.4688V9.65625H6.65875L11.7513 11.555C12.0487 11.6687 12.25 11.9575 12.25 12.2812C12.25 12.2812 10.5 12.2375 10.2375 12.15L8.155 11.4588L7.60375 13.1212L9.68625 13.8125C10.1325 13.9613 10.5962 14.0312 11.0687 14.0312H15.75C16.0912 14.0312 16.3975 14.2413 16.5375 14.53L11.3488 16.14Z" fill="#3B4559"/>
</svg>
