<svg width="18" height="16" viewBox="0 0 18 16" fill="none" xmlns="http://www.w3.org/2000/svg">
<path d="M11.2 1.53625L17.0634 11.3021C17.906 12.7048 17.4921 14.5501 16.1385 15.4234C15.6842 15.7175 15.1546 15.8743 14.6134 15.8749H2.88575C1.29238 15.8749 0 14.5361 0 12.8833C0 12.3241 0.151375 11.7773 0.43575 11.3021L6.3 1.53625C7.14175 0.133626 8.9215 -0.295999 10.2751 0.577251C10.6496 0.818751 10.9664 1.14688 11.2 1.53625ZM9.2575 2.27038C9.15038 2.20148 9.03041 2.155 8.90482 2.13377C8.77924 2.11253 8.65066 2.11698 8.52684 2.14683C8.40302 2.17668 8.28654 2.23132 8.18443 2.30744C8.08232 2.38357 7.9967 2.47961 7.93275 2.58975L2.06938 12.3574C1.97413 12.5166 1.92392 12.6986 1.92412 12.8841C1.92412 13.4354 2.35462 13.8816 2.88663 13.8816H14.6125C14.7928 13.8816 14.9686 13.8291 15.1209 13.7311C15.3393 13.586 15.4934 13.3621 15.5509 13.1062C15.6085 12.8503 15.5651 12.5821 15.4298 12.3574L9.56637 2.58975C9.48947 2.46115 9.38323 2.35189 9.2575 2.27038ZM8.75 12.3749C8.51794 12.3749 8.29538 12.2827 8.13128 12.1186C7.96719 11.9545 7.875 11.7319 7.875 11.4999C7.875 11.2678 7.96719 11.0453 8.13128 10.8812C8.29538 10.7171 8.51794 10.6249 8.75 10.6249C8.98206 10.6249 9.20462 10.7171 9.36872 10.8812C9.53281 11.0453 9.625 11.2678 9.625 11.4999C9.625 11.7319 9.53281 11.9545 9.36872 12.1186C9.20462 12.2827 8.98206 12.3749 8.75 12.3749ZM8.75 4.49988C8.98206 4.49988 9.20462 4.59206 9.36872 4.75616C9.53281 4.92025 9.625 5.14281 9.625 5.37488V8.87488C9.625 9.10694 9.53281 9.3295 9.36872 9.49359C9.20462 9.65769 8.98206 9.74988 8.75 9.74988C8.51794 9.74988 8.29538 9.65769 8.13128 9.49359C7.96719 9.3295 7.875 9.10694 7.875 8.87488V5.37488C7.875 5.14281 7.96719 4.92025 8.13128 4.75616C8.29538 4.59206 8.51794 4.49988 8.75 4.49988Z" fill="#3B4559"/>
</svg>
