<svg width="18" height="18" viewBox="0 0 18 18" fill="none" xmlns="http://www.w3.org/2000/svg">
<path d="M15.879 5.14286L12 1.818V5.14286H15.879ZM16.5 6.42857H10.5V1.28571H1.5V16.7143H16.5V6.42857ZM0.75 0H12L18 5.14286V17.3571C18 17.5276 17.921 17.6912 17.7803 17.8117C17.6397 17.9323 17.4489 18 17.25 18H0.75C0.551088 18 0.360322 17.9323 0.21967 17.8117C0.0790178 17.6912 0 17.5276 0 17.3571V0.642857C0 0.472361 0.0790178 0.308848 0.21967 0.188288C0.360322 0.0677294 0.551088 0 0.75 0ZM7.992 10.9749L5.871 9.15429L6.9315 8.24529L9.054 10.0633L11.175 8.24657L12.2355 9.15557L10.1145 10.9749L12.2355 12.7929L11.175 13.7019L9.054 11.8839L6.9315 13.7019L5.871 12.7929L7.992 10.9749Z" fill="#3B4559"/>
</svg>
