<svg width="23" height="25" viewBox="0 0 23 25" fill="none" xmlns="http://www.w3.org/2000/svg">
<path d="M3.25 19.751H2.071C1.7965 19.7599 1.52967 19.6597 1.32893 19.4722C1.12819 19.2848 1.00991 19.0255 1 18.751V1.976C1.01348 1.70495 1.13369 1.45026 1.33437 1.26756C1.53505 1.08487 1.79988 0.989037 2.071 1.001H20.929C21.2001 0.989037 21.465 1.08487 21.6656 1.26756C21.8663 1.45026 21.9865 1.70495 22 1.976V18.751C21.9901 19.0255 21.8718 19.2848 21.6711 19.4722C21.4703 19.6597 21.2035 19.7599 20.929 19.751H19.75" stroke="black" stroke-width="1.5" stroke-linecap="round" stroke-linejoin="round"/>
<path d="M4.75 4.75098H18.25" stroke="black" stroke-width="1.5" stroke-linecap="round" stroke-linejoin="round"/>
<path d="M4.71704 8.50098H14.5" stroke="black" stroke-width="1.5" stroke-linecap="round" stroke-linejoin="round"/>
<path d="M5.875 17.876C5.875 19.3678 6.46763 20.7986 7.52252 21.8535C8.57742 22.9083 10.0082 23.501 11.5 23.501C12.9918 23.501 14.4226 22.9083 15.4775 21.8535C16.5324 20.7986 17.125 19.3678 17.125 17.876C17.125 16.3841 16.5324 14.9534 15.4775 13.8985C14.4226 12.8436 12.9918 12.251 11.5 12.251C10.0082 12.251 8.57742 12.8436 7.52252 13.8985C6.46763 14.9534 5.875 16.3841 5.875 17.876Z" stroke="black" stroke-width="1.5" stroke-linecap="round" stroke-linejoin="round"/>
<path d="M9.625 19.751L13.375 16.001" stroke="black" stroke-width="1.5" stroke-linecap="round" stroke-linejoin="round"/>
<path d="M9.625 16.001L13.375 19.751" stroke="black" stroke-width="1.5" stroke-linecap="round" stroke-linejoin="round"/>
</svg>
