<svg width="30" height="30" viewBox="0 0 30 30" fill="none" xmlns="http://www.w3.org/2000/svg">
<path d="M14.6667 0C16.6116 0 18.4769 0.772617 19.8521 2.14788C21.2274 3.52315 22 5.38841 22 7.33333C22 9.27825 21.2274 11.1435 19.8521 12.5188C18.4769 13.8941 16.6116 14.6667 14.6667 14.6667C12.7217 14.6667 10.8565 13.8941 9.48122 12.5188C8.10595 11.1435 7.33333 9.27825 7.33333 7.33333C7.33333 5.38841 8.10595 3.52315 9.48122 2.14788C10.8565 0.772617 12.7217 0 14.6667 0ZM14.6667 3.66667C13.6942 3.66667 12.7616 4.05298 12.0739 4.74061C11.3863 5.42824 11 6.36087 11 7.33333C11 8.30579 11.3863 9.23842 12.0739 9.92606C12.7616 10.6137 13.6942 11 14.6667 11C15.6391 11 16.5718 10.6137 17.2594 9.92606C17.947 9.23842 18.3333 8.30579 18.3333 7.33333C18.3333 6.36087 17.947 5.42824 17.2594 4.74061C16.5718 4.05298 15.6391 3.66667 14.6667 3.66667ZM14.6667 16.5C19.5617 16.5 29.3333 18.9383 29.3333 23.8333V29.3333H0V23.8333C0 18.9383 9.77167 16.5 14.6667 16.5ZM14.6667 19.9833C9.22167 19.9833 3.48333 22.66 3.48333 23.8333V25.85H25.85V23.8333C25.85 22.66 20.1117 19.9833 14.6667 19.9833Z" fill="#3B4559"/>
</svg>
