<svg width="40" height="34" viewBox="0 0 40 34" fill="none" xmlns="http://www.w3.org/2000/svg">
<path d="M36.5 8.75H28.25V3.25C28.25 2.52065 27.9603 1.82118 27.4445 1.30546C26.9288 0.789731 26.2293 0.5 25.5 0.5H14.5C13.7707 0.5 13.0712 0.789731 12.5555 1.30546C12.0397 1.82118 11.75 2.52065 11.75 3.25V8.75H3.5C2.77065 8.75 2.07118 9.03973 1.55546 9.55546C1.03973 10.0712 0.75 10.7707 0.75 11.5V30.75C0.75 31.4793 1.03973 32.1788 1.55546 32.6945C2.07118 33.2103 2.77065 33.5 3.5 33.5H36.5C37.2293 33.5 37.9288 33.2103 38.4445 32.6945C38.9603 32.1788 39.25 31.4793 39.25 30.75V11.5C39.25 10.7707 38.9603 10.0712 38.4445 9.55546C37.9288 9.03973 37.2293 8.75 36.5 8.75ZM14.5 3.25H25.5V8.75H14.5V3.25ZM3.5 30.75V11.5H36.5V30.75H3.5Z" fill="#3B4559"/>
</svg>
