<svg width="23" height="23" viewBox="0 0 23 23" fill="none" xmlns="http://www.w3.org/2000/svg">
<circle cx="11.5" cy="11.5" r="11.5" fill="#0B112A"/>
<path d="M11.2501 14V7" stroke="white" stroke-linecap="round" stroke-linejoin="round"/>
<path d="M11.2412 16C11.2085 16.0006 11.1763 16.0078 11.1464 16.021C11.1166 16.0342 11.0896 16.0532 11.0672 16.077C11.0448 16.1007 11.0273 16.1287 11.0158 16.1592C11.0043 16.1898 10.999 16.2224 11.0002 16.255C11.0027 16.3207 11.0306 16.3829 11.0779 16.4285C11.1253 16.4742 11.1884 16.4998 11.2542 16.5H11.2592C11.2918 16.4994 11.324 16.4922 11.3539 16.479C11.3838 16.4658 11.4107 16.4468 11.4331 16.423C11.4556 16.3993 11.473 16.3713 11.4845 16.3408C11.4961 16.3102 11.5014 16.2776 11.5002 16.245C11.4976 16.18 11.4703 16.1184 11.4238 16.0728C11.3774 16.0273 11.3152 16.0012 11.2502 16H11.2452" stroke="white" stroke-linecap="round" stroke-linejoin="round"/>
</svg>
