<svg width="17" height="17" viewBox="0 0 17 17" fill="none" xmlns="http://www.w3.org/2000/svg">
<path d="M8.79167 0.666748C4.31159 0.666748 0.666666 4.31167 0.666666 8.79175C0.666666 13.2718 4.31159 16.9167 8.79167 16.9167C13.2717 16.9167 16.9167 13.2718 16.9167 8.79175C16.9167 4.31167 13.2717 0.666748 8.79167 0.666748ZM11.7335 10.85C11.7939 10.9074 11.8423 10.9764 11.8757 11.0528C11.9091 11.1293 11.9269 11.2116 11.9279 11.2951C11.929 11.3785 11.9134 11.4613 11.8819 11.5385C11.8505 11.6158 11.8039 11.686 11.7449 11.745C11.6859 11.804 11.6157 11.8506 11.5385 11.882C11.4612 11.9134 11.3784 11.9291 11.295 11.928C11.2116 11.9269 11.1292 11.9092 11.0528 11.8758C10.9763 11.8424 10.9073 11.794 10.8499 11.7335L8.79167 9.67573L6.73346 11.7335C6.6153 11.8458 6.45796 11.9075 6.29498 11.9054C6.132 11.9033 5.97629 11.8376 5.86104 11.7224C5.74579 11.6071 5.68012 11.4514 5.67803 11.2884C5.67595 11.1255 5.73761 10.9681 5.84987 10.85L7.90768 8.79175L5.84987 6.73354C5.73761 6.61538 5.67595 6.45804 5.67803 6.29506C5.68012 6.13209 5.74579 5.97637 5.86104 5.86112C5.97629 5.74587 6.132 5.6802 6.29498 5.67811C6.45796 5.67603 6.6153 5.73769 6.73346 5.84995L8.79167 7.90776L10.8499 5.84995C10.968 5.73769 11.1254 5.67603 11.2884 5.67811C11.4513 5.6802 11.607 5.74587 11.7223 5.86112C11.8375 5.97637 11.9032 6.13209 11.9053 6.29506C11.9074 6.45804 11.8457 6.61538 11.7335 6.73354L9.67565 8.79175L11.7335 10.85Z" fill="#6B778C"/>
</svg>

