<svg width="18" height="18" viewBox="0 0 18 18" fill="none" xmlns="http://www.w3.org/2000/svg">
<path d="M15.75 5.3912H12.8723C12.9043 5.36413 12.9371 5.33788 12.9683 5.30917C13.2175 5.08783 13.4182 4.81746 13.5581 4.51498C13.698 4.2125 13.774 3.88441 13.7812 3.55124C13.792 3.18675 13.7282 2.82391 13.5937 2.48498C13.4591 2.14606 13.2568 1.83821 12.999 1.58033C12.7412 1.32244 12.4334 1.11998 12.0945 0.985349C11.7556 0.850723 11.3928 0.786781 11.0283 0.797448C10.695 0.804627 10.3667 0.880533 10.0641 1.02041C9.76146 1.1603 9.49096 1.36114 9.26953 1.61038C8.96313 1.96549 8.71404 2.36625 8.53125 2.79819C8.34846 2.36625 8.09937 1.96549 7.79297 1.61038C7.57154 1.36114 7.30104 1.1603 6.99841 1.02041C6.69578 0.880533 6.36753 0.804627 6.03422 0.797448C5.66973 0.786781 5.30691 0.850723 4.96802 0.985349C4.62914 1.11998 4.32135 1.32244 4.06354 1.58033C3.80574 1.83821 3.60336 2.14606 3.46883 2.48498C3.33431 2.82391 3.27047 3.18675 3.28125 3.55124C3.28854 3.88441 3.3645 4.2125 3.50438 4.51498C3.64426 4.81746 3.84504 5.08783 4.09418 5.30917C4.12535 5.33624 4.15816 5.36249 4.19016 5.3912H1.3125C0.964403 5.3912 0.630564 5.52948 0.384422 5.77562C0.138281 6.02176 0 6.3556 0 6.7037V9.3287C0 9.67679 0.138281 10.0106 0.384422 10.2568C0.630564 10.5029 0.964403 10.6412 1.3125 10.6412V15.8912C1.3125 16.2393 1.45078 16.5731 1.69692 16.8193C1.94306 17.0654 2.2769 17.2037 2.625 17.2037H14.4375C14.7856 17.2037 15.1194 17.0654 15.3656 16.8193C15.6117 16.5731 15.75 16.2393 15.75 15.8912V10.6412C16.0981 10.6412 16.4319 10.5029 16.6781 10.2568C16.9242 10.0106 17.0625 9.67679 17.0625 9.3287V6.7037C17.0625 6.3556 16.9242 6.02176 16.6781 5.77562C16.4319 5.52948 16.0981 5.3912 15.75 5.3912ZM10.2539 2.47991C10.3578 2.36516 10.4843 2.27314 10.6255 2.20962C10.7667 2.14609 10.9194 2.11244 11.0742 2.11077H11.1144C11.2958 2.1119 11.4752 2.14924 11.642 2.22058C11.8088 2.29193 11.9597 2.39586 12.0859 2.52627C12.212 2.65668 12.3108 2.81096 12.3766 2.98006C12.4423 3.14916 12.4737 3.32968 12.4688 3.51104C12.4671 3.66583 12.4334 3.81861 12.3699 3.95977C12.3064 4.10094 12.2144 4.22745 12.0996 4.33135C11.3211 5.02042 10.0291 5.26323 9.22852 5.34854C9.32695 4.47983 9.59766 3.21737 10.2539 2.47991ZM4.99652 2.50944C5.25077 2.25522 5.59511 2.11165 5.95465 2.10995H5.99484C6.14964 2.11162 6.30241 2.14527 6.44357 2.2088C6.58474 2.27232 6.71125 2.36434 6.81516 2.47909C7.5034 3.25674 7.74621 4.54628 7.83152 5.34362C7.03418 5.26159 5.74465 5.01549 4.96699 4.32725C4.85225 4.22335 4.76022 4.09684 4.6967 3.95567C4.63317 3.81451 4.59952 3.66173 4.59785 3.50694C4.59276 3.32256 4.62519 3.13907 4.69315 2.9676C4.76112 2.79614 4.86322 2.64026 4.99324 2.50944H4.99652ZM1.3125 6.7037H7.875V9.3287H1.3125V6.7037ZM2.625 10.6412H7.875V15.8912H2.625V10.6412ZM14.4375 15.8912H9.1875V10.6412H14.4375V15.8912ZM15.75 9.3287H9.1875V6.7037H15.75V9.3287Z" fill="#3B4559"/>
</svg>
