<svg width="40" height="40" viewBox="0 0 40 40" fill="none" xmlns="http://www.w3.org/2000/svg">
<rect width="40" height="40" rx="8" fill="#E6EDF6"/>
<path d="M8.5 20C8.5 20.663 8.76339 21.2989 9.23223 21.7678C9.70107 22.2366 10.337 22.5 11 22.5C11.663 22.5 12.2989 22.2366 12.7678 21.7678C13.2366 21.2989 13.5 20.663 13.5 20C13.5 19.337 13.2366 18.7011 12.7678 18.2322C12.2989 17.7634 11.663 17.5 11 17.5C10.337 17.5 9.70107 17.7634 9.23223 18.2322C8.76339 18.7011 8.5 19.337 8.5 20Z" fill="#3B4559" stroke="#3B4559" stroke-linecap="round" stroke-linejoin="round"/>
<path d="M17.5 20C17.5 20.663 17.7634 21.2989 18.2322 21.7678C18.7011 22.2366 19.337 22.5 20 22.5C20.663 22.5 21.2989 22.2366 21.7678 21.7678C22.2366 21.2989 22.5 20.663 22.5 20C22.5 19.337 22.2366 18.7011 21.7678 18.2322C21.2989 17.7634 20.663 17.5 20 17.5C19.337 17.5 18.7011 17.7634 18.2322 18.2322C17.7634 18.7011 17.5 19.337 17.5 20Z" fill="#3B4559" stroke="#3B4559" stroke-linecap="round" stroke-linejoin="round"/>
<path d="M26.5 20C26.5 20.663 26.7634 21.2989 27.2322 21.7678C27.7011 22.2366 28.337 22.5 29 22.5C29.663 22.5 30.2989 22.2366 30.7678 21.7678C31.2366 21.2989 31.5 20.663 31.5 20C31.5 19.337 31.2366 18.7011 30.7678 18.2322C30.2989 17.7634 29.663 17.5 29 17.5C28.337 17.5 27.7011 17.7634 27.2322 18.2322C26.7634 18.7011 26.5 19.337 26.5 20Z" fill="#3B4559" stroke="#3B4559" stroke-linecap="round" stroke-linejoin="round"/>
</svg>
