<svg width="24" height="24" viewBox="0 0 24 24" fill="none" xmlns="http://www.w3.org/2000/svg">
<path d="M14.9999 23H1.99988C1.73466 23 1.48031 22.8946 1.29277 22.7071C1.10523 22.5196 0.999878 22.2652 0.999878 22V2C0.999878 1.73478 1.10523 1.48043 1.29277 1.29289C1.48031 1.10536 1.73466 1 1.99988 1H19.4999" stroke="#285CED" stroke-width="1.5" stroke-linecap="round" stroke-linejoin="round"/>
<path d="M4.49988 14.25H12.4849" stroke="#285CED" stroke-width="1.5" stroke-linecap="round" stroke-linejoin="round"/>
<path d="M4.49988 18.333H11.2879" stroke="#285CED" stroke-width="1.5" stroke-linecap="round" stroke-linejoin="round"/>
<path d="M9.28388 4.58203H4.49988V9.96403H9.28388V4.58203Z" stroke="#285CED" stroke-width="1.5" stroke-linecap="round" stroke-linejoin="round"/>
<path d="M19.4999 10.5C21.0187 10.5 22.2499 9.26878 22.2499 7.75C22.2499 6.23122 21.0187 5 19.4999 5C17.9811 5 16.7499 6.23122 16.7499 7.75C16.7499 9.26878 17.9811 10.5 19.4999 10.5Z" stroke="#285CED" stroke-width="1.5" stroke-linejoin="round"/>
<path d="M22.9999 15C22.9999 14.0717 22.6311 13.1815 21.9748 12.5251C21.3184 11.8687 20.4281 11.5 19.4999 11.5C18.5716 11.5 17.6814 11.8687 17.025 12.5251C16.3686 13.1815 15.9999 14.0717 15.9999 15V18H17.5829L17.9999 23H20.9999L21.4169 18H22.9999V15Z" stroke="#285CED" stroke-width="1.5" stroke-linejoin="round"/>
</svg>
