<svg width="55" height="55" viewBox="0 0 55 55" fill="none" xmlns="http://www.w3.org/2000/svg">
<circle cx="27.5" cy="27.5" r="27.5" fill="#E6EDF6"/>
<circle cx="4.58333" cy="4.58333" r="4.58333" transform="matrix(-1 0 0 1 32.0833 17.1875)" stroke="white" stroke-width="1.5"/>
<path d="M19.4792 33.1542C19.4792 32.1684 20.099 31.289 21.0274 30.9574V30.9574C25.213 29.4626 29.7871 29.4626 33.9728 30.9574V30.9574C34.9012 31.289 35.5209 32.1684 35.5209 33.1542V34.9335C35.5209 36.1506 34.4429 37.0855 33.2381 36.9134L31.3185 36.6392C28.7857 36.2773 26.2144 36.2773 23.6817 36.6392L21.7621 36.9134C20.5572 37.0855 19.4792 36.1506 19.4792 34.9335V33.1542Z" stroke="white" stroke-width="1.5"/>
</svg>
