<svg width="24" height="24" viewBox="0 0 24 24" fill="none" xmlns="http://www.w3.org/2000/svg">
<circle cx="3.40426" cy="3.40426" r="3.40426" transform="matrix(-1 0 0 1 15.6162 5)" stroke="#3B4559" stroke-width="1.5"/>
<path d="M6.25488 16.8604C6.25488 16.1282 6.71518 15.475 7.40475 15.2287V15.2287C10.5136 14.1184 13.911 14.1184 17.0199 15.2287V15.2287C17.7095 15.475 18.1698 16.1282 18.1698 16.8604V17.98C18.1698 18.9905 17.2747 19.7668 16.2743 19.6239L15.9407 19.5763C13.4677 19.223 10.957 19.223 8.48393 19.5763L8.15038 19.6239C7.14995 19.7668 6.25488 18.9905 6.25488 17.98V16.8604Z" stroke="#3B4559" stroke-width="1.5"/>
<path d="M17.3194 11.9042C18.7966 11.9042 19.9941 10.7067 19.9941 9.22946C19.9941 7.75222 18.7966 6.55469 17.3194 6.55469" stroke="#3B4559" stroke-width="1.5" stroke-linecap="round"/>
<path d="M20.2491 18.0075L20.5111 18.0449C21.2972 18.1572 22.0005 17.5473 22.0005 16.7533V15.8736C22.0005 15.2983 21.6388 14.7851 21.097 14.5916C20.5565 14.3985 20.005 14.2482 19.4473 14.1406" stroke="#3B4559" stroke-width="1.5" stroke-linecap="round"/>
<path d="M6.68063 11.9042C5.2034 11.9042 4.00586 10.7067 4.00586 9.22946C4.00586 7.75222 5.2034 6.55469 6.68063 6.55469" stroke="#3B4559" stroke-width="1.5" stroke-linecap="round"/>
<path d="M3.75094 18.0075L3.48886 18.0449C2.70281 18.1572 1.99954 17.5473 1.99954 16.7533V15.8736C1.99954 15.2983 2.36121 14.7851 2.90301 14.5916C3.44346 14.3985 3.995 14.2482 4.55273 14.1406" stroke="#3B4559" stroke-width="1.5" stroke-linecap="round"/>
</svg>
