<svg width="26" height="26" viewBox="0 0 26 26" fill="none" xmlns="http://www.w3.org/2000/svg">
<path d="M5.64648 16.9276L24.7903 1.12109" stroke="#3B4559" stroke-linecap="round" stroke-linejoin="round"/>
<path d="M10.1104 18.8435L17.9251 22.192C18.0716 22.2548 18.2298 22.2854 18.3892 22.2819C18.5485 22.2784 18.7053 22.2407 18.8488 22.1715C18.9924 22.1023 19.1195 22.0031 19.2215 21.8807C19.3235 21.7582 19.3981 21.6153 19.4402 21.4616L24.9791 1.70975C25.0088 1.6042 25.0068 1.49222 24.9733 1.38779C24.9399 1.28337 24.8763 1.19111 24.7908 1.12255C24.7052 1.05399 24.6013 1.01216 24.4921 1.00227C24.3828 0.992388 24.2731 1.01489 24.1766 1.06697L1.58725 13.2171C1.40225 13.3169 1.24912 13.4667 1.14544 13.6496C1.04177 13.8324 0.991741 14.0407 1.00111 14.2507C1.01048 14.4606 1.07887 14.6637 1.19842 14.8366C1.31797 15.0094 1.48384 15.145 1.67699 15.2279L5.64224 16.9288" stroke="#3B4559" stroke-linecap="round" stroke-linejoin="round"/>
<path d="M5.64648 16.9297L8.35954 24.4427C8.41245 24.5896 8.50527 24.7189 8.62758 24.8159C8.74988 24.913 8.89683 24.9741 9.05192 24.9923C9.20701 25.0105 9.36411 24.9851 9.50557 24.919C9.64704 24.8529 9.76727 24.7486 9.85277 24.618L12.8674 20.0267" stroke="#3B4559" stroke-linecap="round" stroke-linejoin="round"/>
<path d="M24.7899 1.12109L10.1101 18.8413L9.1543 24.9988" stroke="#3B4559" stroke-linecap="round" stroke-linejoin="round"/>
</svg>
