<svg width="18" height="20" viewBox="0 0 18 20" fill="none" xmlns="http://www.w3.org/2000/svg">
<path d="M11.052 0.338548C10.8984 0.213019 10.7214 0.119202 10.5313 0.0625268C10.3412 0.00585159 10.1418 -0.0125559 9.94454 0.00836958C9.74728 0.0292951 9.55613 0.0891381 9.38216 0.184435C9.20818 0.279731 9.05484 0.408588 8.931 0.563547L4.587 6.00555H6.507L10.1025 1.49955L11.2575 2.44305L8.3625 6.00555H10.2945L12.42 3.38955L14.997 5.49405L14.55 6.00555H15C15.4473 6.00508 15.8922 6.0713 16.32 6.20205C16.4834 5.89549 16.5354 5.54172 16.467 5.20114C16.3986 4.86055 16.2141 4.55425 15.945 4.33455L11.052 0.338548ZM1.5 6.75555C1.5 6.55663 1.57902 6.36587 1.71967 6.22522C1.86032 6.08456 2.05109 6.00555 2.25 6.00555H3.087L4.2795 4.50555H2.25C1.65326 4.50555 1.08097 4.7426 0.65901 5.16456C0.237053 5.58651 0 6.15881 0 6.75555V15.7555C0 16.7501 0.395088 17.7039 1.09835 18.4072C1.80161 19.1105 2.75544 19.5055 3.75 19.5055H15C15.7956 19.5055 16.5587 19.1895 17.1213 18.6269C17.6839 18.0643 18 17.3012 18 16.5055V10.5055C18 9.7099 17.6839 8.94684 17.1213 8.38423C16.5587 7.82162 15.7956 7.50555 15 7.50555H2.25C2.05109 7.50555 1.86032 7.42653 1.71967 7.28588C1.57902 7.14522 1.5 6.95446 1.5 6.75555ZM12.75 13.5055H14.25C14.4489 13.5055 14.6397 13.5846 14.7803 13.7252C14.921 13.8659 15 14.0566 15 14.2555C15 14.4545 14.921 14.6452 14.7803 14.7859C14.6397 14.9265 14.4489 15.0055 14.25 15.0055H12.75C12.5511 15.0055 12.3603 14.9265 12.2197 14.7859C12.079 14.6452 12 14.4545 12 14.2555C12 14.0566 12.079 13.8659 12.2197 13.7252C12.3603 13.5846 12.5511 13.5055 12.75 13.5055Z" fill="black"/>
</svg>
