<svg width="18" height="20" viewBox="0 0 18 20" fill="none" xmlns="http://www.w3.org/2000/svg">
<path d="M6.26486 5.99993H5.6246L9.32159 1.37008C9.40415 1.26678 9.50638 1.18087 9.62236 1.11734C9.73835 1.05381 9.86578 1.01391 9.99728 0.999965C10.1288 0.986014 10.2618 0.998286 10.3885 1.03607C10.5152 1.07385 10.6332 1.1364 10.7356 1.22008L10.7357 1.2202L15.6287 5.2162L15.6288 5.21623C15.8082 5.3627 15.9312 5.5669 15.9768 5.79396C15.997 5.89477 16.0014 5.99732 15.9906 6.09808C15.8678 6.07338 15.7441 6.05331 15.6198 6.03791L15.7143 5.93014L15.3133 5.60266L12.7363 3.49816L12.348 3.18111L12.0319 3.57014L10.0565 6.00143H9.41166L11.6455 3.25278L11.9601 2.86573L11.5738 2.55021L10.4188 1.60671L10.0272 1.28681L9.71173 1.682L6.26486 5.99993ZM1.66625 8.90088L1 8.66598V9.37243V16.2499C1 16.9793 1.28973 17.6787 1.80546 18.1945C2.32118 18.7102 3.02065 18.9999 3.75 18.9999H15C15.5304 18.9999 16.0391 18.7892 16.4142 18.4141C16.7893 18.0391 17 17.5304 17 16.9999V10.9999C17 10.4695 16.7893 9.96079 16.4142 9.58572C16.0391 9.21065 15.5304 8.99993 15 8.99993H2.25C2.04464 8.99993 1.84733 8.96472 1.66625 8.90088ZM12.5732 14.5732C12.6201 14.5263 12.6837 14.4999 12.75 14.4999H14.25C14.3163 14.4999 14.3799 14.5263 14.4268 14.5732C14.4737 14.62 14.5 14.6836 14.5 14.7499C14.5 14.8162 14.4737 14.8798 14.4268 14.9267C14.3799 14.9736 14.3163 14.9999 14.25 14.9999H12.75C12.6837 14.9999 12.6201 14.9736 12.5732 14.9267C12.5263 14.8798 12.5 14.8162 12.5 14.7499C12.5 14.6836 12.5263 14.62 12.5732 14.5732ZM1.36612 6.36605C1.1317 6.60047 1 6.91841 1 7.24993C1 7.58145 1.1317 7.89939 1.36612 8.13382C1.60054 8.36823 1.91848 8.49993 2.25 8.49993H15C15.663 8.49993 16.2989 8.76332 16.7678 9.23216C17.2366 9.70101 17.5 10.3369 17.5 10.9999V16.9999C17.5 17.663 17.2366 18.2989 16.7678 18.7677C16.2989 19.2365 15.663 19.4999 15 19.4999H3.75C2.88805 19.4999 2.0614 19.1575 1.4519 18.548C0.842409 17.9385 0.5 17.1119 0.5 16.2499V7.24993C0.5 6.7858 0.684375 6.34068 1.01256 6.01249C1.34075 5.68431 1.78587 5.49993 2.25 5.49993H3.24325L2.84575 5.99993H2.25C1.91848 5.99993 1.60054 6.13163 1.36612 6.36605Z" fill="black" stroke="black"/>
</svg>
