<svg width="20" height="18" viewBox="0 0 20 18" fill="none" xmlns="http://www.w3.org/2000/svg">
<path d="M10.1118 3.37832L9.63232 3.82632C9.69371 3.89203 9.76796 3.94442 9.85044 3.98023C9.93293 4.01605 10.0219 4.03453 10.1118 4.03453C10.2017 4.03453 10.2907 4.01605 10.3732 3.98023C10.4557 3.94442 10.5299 3.89203 10.5913 3.82632L10.1118 3.37832ZM7.86657 14.9476C6.59782 13.9186 5.11732 12.5684 3.95882 11.0906C2.78719 9.59695 2.01807 8.06308 2.01807 6.65433H0.705566C0.705566 8.5067 1.69432 10.3311 2.92544 11.9008C4.16969 13.4872 5.73419 14.9073 7.03969 15.967L7.86657 14.9476ZM2.01807 6.65433C2.01807 4.11245 3.12757 2.54182 4.49957 2.0037C5.86894 1.46732 7.78432 1.85057 9.63232 3.82632L10.5913 2.93032C8.50182 0.695575 6.04219 -0.00967538 4.02094 0.781325C2.00232 1.57232 0.705566 3.74407 0.705566 6.65433H2.01807ZM13.1831 15.9661C14.4894 14.9064 16.0539 13.4863 17.2982 11.9C18.5293 10.3302 19.5181 8.50583 19.5181 6.65258H18.2056C18.2056 8.06308 17.4356 9.59608 16.2648 11.0897C15.1063 12.5676 13.6258 13.9177 12.3571 14.9467L13.1831 15.9661ZM19.5181 6.65258C19.5181 3.7432 18.2213 1.57145 16.2018 0.781325C14.1806 -0.0105504 11.7218 0.693825 9.63232 2.92945L10.5913 3.82632C12.4393 1.85057 14.3547 1.46645 15.7241 2.00282C17.0961 2.54007 18.2056 4.11157 18.2056 6.65258H19.5181ZM7.03969 15.967C8.15094 16.87 8.92357 17.5323 10.1118 17.5323V16.2198C9.47919 16.2198 9.08544 15.9363 7.86657 14.9476L7.03969 15.967ZM12.3571 14.9467C11.1382 15.9355 10.7444 16.2198 10.1118 16.2198V17.5323C11.3001 17.5323 12.0727 16.87 13.1839 15.967L12.3571 14.9467Z" fill="#3B4559"/>
<path d="M15.7993 6.37607H14.0493M14.0493 6.37607H12.2993M14.0493 6.37607V4.62607M14.0493 6.37607V8.12607" stroke="#3B4559" stroke-width="3.25" stroke-linecap="round"/>
</svg>
